<?xml version="1.0" encoding="UTF-8"?>
<svg xmlns="http://www.w3.org/2000/svg" id="Logo_header_logo" data-name="Logo/header_logo" width="90.999" height="46.141" viewBox="0 0 90.999 46.141">
  <path id="Path_1" data-name="Path 1" d="M22.445,24.583a2.1,2.1,0,0,1-1.082-.313,2.546,2.546,0,0,1-1.012-2.086,1.755,1.755,0,0,1,.07-.452c.838-2.33,1.326-5.077,1.047-5.876H21.4c-2.443.591-6.667,4.764-8.761,7.232a1.41,1.41,0,0,1-2.164-1.808c.628-.73,6.178-7.2,10.3-8.171a2.753,2.753,0,0,1,2.792.73c.908,1.008.942,2.747.7,4.485,1.536-2.469,3.142-5.111,3.177-5.181a1.866,1.866,0,0,1,.524-.522c.524-.278,12.81-6.676,42.341-2.851a1.375,1.375,0,0,1,1.222,1.252c.175,1.669.349,3.2.489,4.381.8-.835,1.745-1.808,2.583-2.573,1.85-1.7,4.4-.869,5.585-.1a1.415,1.415,0,1,1-1.5,2.4s-1.466-.869-2.2-.209a48.006,48.006,0,0,0-3.7,3.79,1.784,1.784,0,0,1-1.71.8A1.966,1.966,0,0,1,69.6,18.5a1.129,1.129,0,0,1-.14-.487s-.314-2.469-.663-5.6c-25.167-3.095-37.14,1.6-39.2,2.538-.942,1.53-4.468,7.3-5.62,8.9a1.4,1.4,0,0,1-.559.452A1.75,1.75,0,0,1,22.445,24.583Z" fill="#232E4E"></path>
  <path id="Path_2" data-name="Path 2" d="M68.661,5.146h-4.4l.1-.591c.1-.661,1.047-4.033,1.082-4.172A.5.5,0,0,1,66.008,0a1.528,1.528,0,0,1,.419.07c.489.1,2.374.556,2.374.556a.711.711,0,0,1,.559.313.477.477,0,0,1,.035.382c-.035.139-.419,2.191-.628,3.408Z" fill="#4da141"></path>
  <path id="Path_3" data-name="Path 3" d="M63.353,12.274a.666.666,0,0,1-.558-.382,4.631,4.631,0,0,1-.14-1.46,4.35,4.35,0,0,1,1.082-2.99.913.913,0,0,1,.768-.417.985.985,0,0,1,.593.209,1.638,1.638,0,0,1,.174,1.46,10.347,10.347,0,0,1-1.117,2.851l-.279.417A.55.55,0,0,1,63.353,12.274Z" fill="#d61742"></path>
  <path id="Path_4" data-name="Path 4" d="M59.759,19.054l-.209-1.6a12.621,12.621,0,0,1,.174-1.5,5.045,5.045,0,0,1,1.222-2.782,1.459,1.459,0,0,1,1.222-.626,1.407,1.407,0,0,1,.663.139,2.134,2.134,0,0,1,.768,1.6c.07,2.434-.035,4.485-.035,4.52v.243Z" fill="#d61742"></path>
  <path id="Path_5" data-name="Path 5" d="M1.571,31.676H.175A.165.165,0,0,1,0,31.5V30.459a.165.165,0,0,1,.175-.174H4.468a.165.165,0,0,1,.175.174V31.5a.165.165,0,0,1-.175.174h-1.4v5.146A.165.165,0,0,1,2.9,37H1.745a.165.165,0,0,1-.175-.174Z" fill="#232E4E"></path>
  <path id="Path_6" data-name="Path 6" d="M9.181,34.7l-.733-1.6-.733,1.6ZM5.2,36.752l3.037-6.467a.192.192,0,0,1,.175-.1h.1a.192.192,0,0,1,.175.1l3.037,6.467c.07.139-.035.243-.174.243H10.472c-.174,0-.244-.069-.349-.243l-.349-.765H7.156l-.349.765A.355.355,0,0,1,6.458,37H5.411C5.236,37,5.132,36.891,5.2,36.752Z" fill="#232E4E"></path>
  <path id="Path_7" data-name="Path 7" d="M15.637,35.606a.7.7,0,0,0,.7-.7.769.769,0,0,0-.8-.661h-.768V35.64h.873ZM15.533,33a.67.67,0,0,0,.663-.7.662.662,0,0,0-.663-.661h-.768V33Zm-2.269-2.573a.165.165,0,0,1,.175-.174h2.269A1.941,1.941,0,0,1,17.8,32.059a1.949,1.949,0,0,1-1.117,1.53,1.813,1.813,0,0,1,1.292,1.565A1.945,1.945,0,0,1,15.882,37H13.473a.165.165,0,0,1-.174-.174v-6.4Z" fill="#232E4E"></path>
  <path id="Path_8" data-name="Path 8" d="M19.967,30.425a.165.165,0,0,1,.174-.174h1.152a.165.165,0,0,1,.174.174v5.146h2.3a.165.165,0,0,1,.174.174v1.043a.165.165,0,0,1-.174.174h-3.63a.165.165,0,0,1-.174-.174Z" fill="#232E4E"></path>
  <path id="Path_9" data-name="Path 9" d="M25.656,30.425a.165.165,0,0,1,.175-.174h4.014a.165.165,0,0,1,.175.174v1.043a.165.165,0,0,1-.175.174H27.157v1.182h2.2a.165.165,0,0,1,.174.174v1.043a.165.165,0,0,1-.174.174h-2.2V35.5h2.688a.165.165,0,0,1,.175.174v1.043a.165.165,0,0,1-.175.174H25.831a.165.165,0,0,1-.175-.174Z" fill="#232E4E"></path>
  <path id="Path_10" data-name="Path 10" d="M35.709,30.32c0-.069.1-.139.175-.139h.14a.238.238,0,0,1,.174.1l2.234,4.173h.035L40.7,30.285a.192.192,0,0,1,.174-.1h.14c.07,0,.174.069.174.139l1.082,6.467A.162.162,0,0,1,42.1,37H40.945c-.07,0-.174-.069-.174-.139l-.419-2.99h-.035L38.676,37a.192.192,0,0,1-.174.1h-.174a.192.192,0,0,1-.174-.1l-1.641-3.129h-.035l-.419,2.99a.159.159,0,0,1-.174.139H34.732a.162.162,0,0,1-.175-.209Z" fill="#232E4E"></path>
  <path id="Path_11" data-name="Path 11" d="M47.263,35.571a1.933,1.933,0,0,0,1.92-1.912,1.963,1.963,0,0,0-1.92-1.947,1.93,1.93,0,0,0,0,3.86Zm0-5.424a3.494,3.494,0,0,1,3.491,3.477,3.473,3.473,0,1,1-3.491-3.477Z" fill="#232E4E"></path>
  <path id="Path_12" data-name="Path 12" d="M52.6,30.425a.165.165,0,0,1,.175-.174h1.187a.165.165,0,0,1,.174.174v3.894a1.182,1.182,0,0,0,1.187,1.217,1.212,1.212,0,0,0,1.222-1.217V30.425a.165.165,0,0,1,.175-.174h1.187a.165.165,0,0,1,.174.174v3.964a2.759,2.759,0,0,1-5.515,0V30.425Z" fill="#232E4E"></path>
  <path id="Path_13" data-name="Path 13" d="M60.457,30.32a.165.165,0,0,1,.175-.174h.244l3.874,3.686V30.425a.165.165,0,0,1,.175-.174h1.152a.165.165,0,0,1,.175.174v6.467a.165.165,0,0,1-.175.174h-.14c-.035,0-.1-.035-.14-.035l-3.8-3.825v3.581a.165.165,0,0,1-.175.174H60.667a.165.165,0,0,1-.175-.174Z" fill="#232E4E"></path>
  <path id="Path_14" data-name="Path 14" d="M69.568,31.676h-1.4A.165.165,0,0,1,68,31.5V30.459a.165.165,0,0,1,.174-.174h4.293a.165.165,0,0,1,.175.174V31.5a.165.165,0,0,1-.175.174h-1.4v5.146a.165.165,0,0,1-.175.174H69.742a.165.165,0,0,1-.175-.174Z" fill="#232E4E"></path>
  <path id="Path_15" data-name="Path 15" d="M77.177,34.7l-.733-1.6-.733,1.6ZM73.2,36.752l3.037-6.467a.192.192,0,0,1,.174-.1h.1a.192.192,0,0,1,.174.1l3.037,6.467c.07.139-.035.243-.174.243H78.469c-.175,0-.244-.069-.349-.243l-.349-.765H75.153l-.349.765a.355.355,0,0,1-.349.243H73.408C73.2,37,73.128,36.891,73.2,36.752Z" fill="#232E4E"></path>
  <path id="Path_16" data-name="Path 16" d="M81.228,30.425a.165.165,0,0,1,.175-.174h1.152a.165.165,0,0,1,.175.174v6.363a.165.165,0,0,1-.175.174H81.4a.165.165,0,0,1-.175-.174Z" fill="#232E4E"></path>
  <path id="Path_17" data-name="Path 17" d="M85.205,30.32a.165.165,0,0,1,.174-.174h.244L89.5,33.832V30.425a.165.165,0,0,1,.174-.174h1.152a.165.165,0,0,1,.174.174v6.467a.165.165,0,0,1-.174.174h-.14c-.035,0-.1-.035-.14-.035l-3.8-3.825v3.581a.165.165,0,0,1-.174.174H85.414a.165.165,0,0,1-.174-.174Z" fill="#232E4E"></path>
  <path id="Path_18" data-name="Path 18" d="M14.869,44.68l-.524-1.043-.524,1.043Zm-2.618,1.356c-.035-.035-.035-.035-.035-.069s0-.035.035-.1l2.025-3.755q.052-.1.1-.1a.111.111,0,0,1,.1.1l2.025,3.755a.127.127,0,0,1,.035.1c0,.035,0,.069-.035.069a.129.129,0,0,1-.1.035h-.593a.252.252,0,0,1-.209-.139l-.244-.487H13.472l-.244.487a.236.236,0,0,1-.209.139H12.39A.2.2,0,0,1,12.251,46.036Z" fill="#232E4E"></path>
  <path id="Path_19" data-name="Path 19" d="M18.466,43.672h1.78a.211.211,0,0,1,.14.035c.035.035.035.069.035.139v.417a.208.208,0,0,1-.035.139c-.035.035-.07.035-.14.035h-1.78v.869h2.025a.21.21,0,0,1,.14.035c.035.035.035.07.035.139V45.9a.208.208,0,0,1-.035.139c-.035.035-.07.035-.14.035H17.733a.21.21,0,0,1-.14-.035c-.035-.035-.035-.069-.035-.139V42.177a.208.208,0,0,1,.035-.139c.035-.035.07-.035.14-.035h2.758a.21.21,0,0,1,.14.035c.035.035.035.069.035.139v.417a.209.209,0,0,1-.035.139c-.035.035-.07.035-.14.035H18.466Z" fill="#232E4E"></path>
  <path id="Path_20" data-name="Path 20" d="M23.841,44.02a.579.579,0,0,0,.419-.174.66.66,0,0,0,.174-.452.639.639,0,0,0-.14-.452.5.5,0,0,0-.454-.174H22.9v1.286h.942ZM22.829,46c-.035.035-.07.035-.14.035h-.524c-.07,0-.1,0-.1-.035-.035-.035-.035-.07-.035-.139v-3.72A.208.208,0,0,1,22.061,42a.129.129,0,0,1,.1-.035h1.641a1.783,1.783,0,0,1,.768.174,1.4,1.4,0,0,1,.524.487,1.263,1.263,0,0,1,.174.73,1.4,1.4,0,0,1-.209.765,1.438,1.438,0,0,1-.593.522l.14.209c.07.1.175.209.279.348s.279.348.454.591a.128.128,0,0,1,.035.1c0,.035,0,.07-.035.07a.128.128,0,0,1-.1.035h-.663a.3.3,0,0,1-.209-.1c-.279-.348-.593-.765-.908-1.182h-.593v1.113C22.9,45.933,22.864,46,22.829,46Z" fill="#232E4E"></path>
  <path id="Path_21" data-name="Path 21" d="M27.541,46c-.035.035-.07.035-.14.035h-.558A.211.211,0,0,1,26.7,46c-.035-.035-.035-.07-.035-.139v-3.72A.208.208,0,0,1,26.7,42c.035-.035.07-.035.14-.035H27.4a.211.211,0,0,1,.14.035c.035.035.035.07.035.139v3.72C27.576,45.933,27.576,46,27.541,46Z" fill="#232E4E"></path>
  <path id="Path_22" data-name="Path 22" d="M31.415,44.68l-.524-1.043-.524,1.043Zm-2.653,1.356c-.035-.035-.035-.035-.035-.069s0-.035.035-.1l2.025-3.755q.052-.1.1-.1a.111.111,0,0,1,.1.1l2.024,3.755a.128.128,0,0,1,.035.1c0,.035,0,.069-.035.069a.128.128,0,0,1-.1.035h-.593a.252.252,0,0,1-.209-.139l-.244-.487H29.984l-.244.487a.236.236,0,0,1-.209.139H28.9C28.832,46.071,28.8,46.036,28.762,46.036Z" fill="#232E4E"></path>
  <path id="Path_23" data-name="Path 23" d="M37.1,45.341c.035.035.035.07.035.139V45.9a.208.208,0,0,1-.035.139c-.035.035-.07.035-.14.035H34.277a.211.211,0,0,1-.14-.035C34.1,46,34.1,45.967,34.1,45.9V42.177a.208.208,0,0,1,.035-.139c.035-.035.07-.035.14-.035h.559c.035,0,.1,0,.1.035.035.035.035.069.035.139v3.129H36.93C37.035,45.306,37.069,45.306,37.1,45.341Z" fill="#232E4E"></path>
  <path id="Path_24" data-name="Path 24" d="M43.563,44.75h.07l.524.209c.07.035.1.07.1.139a.127.127,0,0,1-.035.1,1.728,1.728,0,0,1-.8.7,2.114,2.114,0,0,1-1.047.243,2.275,2.275,0,0,1-1.082-.278,2.118,2.118,0,0,1-.8-.765,1.806,1.806,0,0,1-.279-1.043,2.022,2.022,0,0,1,1.082-1.808,2.383,2.383,0,0,1,1.082-.278,2.305,2.305,0,0,1,1.047.243,2.578,2.578,0,0,1,.8.7.127.127,0,0,1,.035.1c0,.069-.035.1-.1.139l-.524.209h-.07a.182.182,0,0,1-.14-.07,1.564,1.564,0,0,0-.454-.382,1.026,1.026,0,0,0-.558-.139,1.449,1.449,0,0,0-.663.174,1.31,1.31,0,0,0-.489.487,1.338,1.338,0,0,0,0,1.321,1.31,1.31,0,0,0,.489.487,1.12,1.12,0,0,0,.663.174,1.027,1.027,0,0,0,.558-.139,1.214,1.214,0,0,0,.454-.382C43.458,44.785,43.493,44.75,43.563,44.75Z" fill="#232E4E"></path>
  <path id="Path_25" data-name="Path 25" d="M47.752,44.68l-.523-1.043-.524,1.043Zm-2.618,1.356C45.1,46,45.1,46,45.1,45.967s0-.035.035-.1l2.025-3.755q.052-.1.1-.1a.111.111,0,0,1,.1.1l2.025,3.755a.127.127,0,0,1,.035.1c0,.035,0,.069-.035.069a.128.128,0,0,1-.1.035h-.593a.252.252,0,0,1-.209-.139l-.244-.487H46.356l-.244.487a.236.236,0,0,1-.209.139h-.628A.2.2,0,0,1,45.134,46.036Z" fill="#232E4E"></path>
  <path id="Path_26" data-name="Path 26" d="M52.22,45.306a.436.436,0,0,0,.384-.139.421.421,0,0,0,0-.626.75.75,0,0,0-.419-.139h-.873v.9Zm-.035-1.7a.341.341,0,0,0,.314-.139.484.484,0,0,0,.1-.313.36.36,0,0,0-.384-.382h-.838V43.6Zm1.152.035a.854.854,0,0,1-.384.313,1,1,0,0,1,.489.382.942.942,0,0,1,.209.591,1.15,1.15,0,0,1-.384.9,1.565,1.565,0,0,1-1.047.278H50.614a.21.21,0,0,1-.14-.035c-.035-.035-.035-.069-.035-.139V42.212a.208.208,0,0,1,.035-.139c.035-.035.07-.035.14-.035H52.15c.873,0,1.326.382,1.326,1.113A.867.867,0,0,1,53.337,43.638Z" fill="#232E4E"></path>
  <path id="Path_27" data-name="Path 27" d="M57.874,45.341c.035.035.035.07.035.139V45.9a.208.208,0,0,1-.035.139c-.035.035-.07.035-.14.035H55.047a.21.21,0,0,1-.14-.035c-.035-.035-.035-.069-.035-.139V42.177a.208.208,0,0,1,.035-.139c.035-.035.07-.035.14-.035h.558a.21.21,0,0,1,.14.035c.035.035.035.069.035.139v3.129h1.955C57.8,45.306,57.839,45.306,57.874,45.341Z" fill="#232E4E"></path>
  <path id="Path_28" data-name="Path 28" d="M59.864,43.672h1.78a.21.21,0,0,1,.14.035c.035.035.035.069.035.139v.417a.209.209,0,0,1-.035.139c-.035.035-.07.035-.14.035h-1.78v.869h2.025a.21.21,0,0,1,.14.035c.035.035.035.07.035.139V45.9a.208.208,0,0,1-.035.139c-.035.035-.07.035-.14.035H59.131a.21.21,0,0,1-.14-.035c-.035-.035-.035-.069-.035-.139V42.177a.208.208,0,0,1,.035-.139c.035-.035.07-.035.14-.035h2.758a.21.21,0,0,1,.14.035c.035.035.035.069.035.139v.417a.209.209,0,0,1-.035.139c-.035.035-.07.035-.14.035H59.864Z" fill="#232E4E"></path>
  <path id="Path_29" data-name="Path 29" d="M68.591,42.142v.069l-1.466,3.755q-.052.1-.1.1t-.1-.1l-1.047-2.156-1.047,2.156q-.052.1-.1.1t-.1-.1l-1.466-3.755v-.069a.123.123,0,0,1,.14-.139h.593c.1,0,.175.035.175.139l.733,1.982.942-1.982q.052-.1.1-.1t.1.1l.942,1.982.768-1.982A.178.178,0,0,1,67.823,42h.593C68.521,42,68.591,42.038,68.591,42.142Z" fill="#232E4E"></path>
  <path id="Path_30" data-name="Path 30" d="M72.01,44.68l-.523-1.043-.524,1.043Zm-2.653,1.356c-.035-.035-.035-.035-.035-.069s0-.035.035-.1l2.024-3.755q.052-.1.1-.1a.111.111,0,0,1,.1.1l2.025,3.755a.127.127,0,0,1,.035.1c0,.035,0,.069-.035.069a.128.128,0,0,1-.1.035h-.593a.253.253,0,0,1-.209-.139l-.279-.487H70.544l-.244.487a.236.236,0,0,1-.209.139h-.628C69.427,46.071,69.392,46.036,69.357,46.036Z" fill="#232E4E"></path>
  <path id="Path_31" data-name="Path 31" d="M78.225,42.038c.035.035.035.035.035.069a.127.127,0,0,1-.035.1l-1.5,2.295v1.356a.208.208,0,0,1-.035.139c-.035.035-.07.035-.14.035h-.559a.211.211,0,0,1-.14-.035c-.035-.035-.035-.07-.035-.139V44.506L74.35,42.211a.127.127,0,0,1-.035-.1c0-.035,0-.069.035-.069a.129.129,0,0,1,.1-.035h.663a.211.211,0,0,1,.209.1l.943,1.53.942-1.53a.211.211,0,0,1,.209-.1h.663A.2.2,0,0,1,78.225,42.038Z" fill="#232E4E"></path>
</svg>
